<svg xmlns="http://www.w3.org/2000/svg" width="60.96mm" height="60.96mm" viewBox="0 0 6096 6096" style="shape-rendering:geometricPrecision; text-rendering:geometricPrecision; image-rendering:optimizeQuality; fill-rule:evenodd; clip-rule:evenodd">
    <style type="text/css">
        .str0 {stroke:#D3D3D3;stroke-width:20} /* Light gray border */
        .fil1 {fill:#FF6F61}  /* Lightened red */
        .fil2 {fill:#6A5ACD}  /* Lightened blue */
    </style>
    <g id="Layer_1">
        <polygon class="fil1" points="3067,5016 1330,4013 1330,2008 3067,1005 4803,2008 4803,2577 4422,2577 4422,2228 3067,1446 1711,2228 1711,3793 3067,4575 4422,3793 4422,3201 3067,3201 3067,2819 4803,2819 4803,4013"/>
        <path class="fil2 str0" d="M1007 4199l2060 1189 2059-1189V1821L3067 632 1007 1821v2378zm2060 1630l-2442-1409V1601L3067 191l2441 1410v2819l-2441 1409z"/>
    </g>
</svg>
